<?xml version="1.0" encoding="UTF-8"?>
<svg version="1.1" xmlns="http://www.w3.org/2000/svg" width="134" height="134">
<path d="M0 0 C7.68618035 -0.12713055 15.37208796 -0.21449075 23.05908203 -0.2746582 C25.67214084 -0.29974952 28.28512982 -0.33383029 30.89794922 -0.37719727 C34.66130841 -0.43808146 38.4237369 -0.46626517 42.1875 -0.48828125 C43.34926758 -0.51408768 44.51103516 -0.5398941 45.70800781 -0.56648254 C52.07749918 -0.56866827 56.23649374 -0.09391628 61.30981445 3.92341614 C63.22829921 5.35815641 63.22829921 5.35815641 67 5 C68.34324341 3.78195679 68.34324341 3.78195679 69.71362305 2.53930664 C73.44545312 -0.76911337 76.75331844 -0.71183356 81.58203125 -0.62890625 C82.39564621 -0.63131821 83.20926117 -0.63373016 84.04753113 -0.63621521 C85.76293831 -0.63523936 87.47837801 -0.62190832 89.19360352 -0.59692383 C91.79489422 -0.56273142 94.39275959 -0.57624756 96.99414062 -0.59570312 C113.1734888 -0.58266484 113.1734888 -0.58266484 120 4 C120.80953125 4.54140625 121.6190625 5.0828125 122.453125 5.640625 C127.70031646 10.34028344 131.75005291 15.25015872 134 22 C134.12092382 24.76878903 134.18812 27.51165413 134.203125 30.28125 C134.20882507 31.0911438 134.21452515 31.9010376 134.22039795 32.73547363 C134.22983733 34.44684547 134.23637771 36.15823539 134.24023438 37.86962891 C134.24996372 40.49022882 134.28100579 43.11005208 134.3125 45.73046875 C134.31902799 47.39322451 134.32427926 49.05598587 134.328125 50.71875 C134.3404718 51.50318481 134.3528186 52.28761963 134.36553955 53.0958252 C134.34336335 58.49640042 134.34336335 58.49640042 132.66699219 60.95507812 C129.20886334 63.12273944 126.09844811 63.16272788 122.125 63.1875 C121.09632812 63.20167969 120.06765625 63.21585938 119.0078125 63.23046875 C114.90192568 62.91586184 112.07050613 61.77314332 108.75 59.375 C106.34070798 56.10524655 105.80856566 52.97417682 106 49 C107.23794294 45.35494577 108.32850831 43.54445272 111.3125 41.125 C114.39888493 39.83302491 116.68570768 39.7687703 120 40 C120 42.64 120 45.28 120 48 C118.35 48.66 116.7 49.32 115 50 C115.495 51.98 115.495 51.98 116 54 C121.445 54.495 121.445 54.495 127 55 C126.98036495 51.05220037 126.92801254 47.10621635 126.84741211 43.15917969 C126.81325235 41.16883601 126.80380856 39.17811696 126.79492188 37.1875 C126.59352583 28.32607387 125.65460796 20.45810884 118.98168945 14.06689453 C111.34639209 7.83316619 103.55248176 7.60064007 94.00463867 7.57446289 C91.9387547 7.56250726 89.87580723 7.51320297 87.81054688 7.46289062 C85.84504883 7.45225586 85.84504883 7.45225586 83.83984375 7.44140625 C82.64738037 7.42795166 81.45491699 7.41449707 80.22631836 7.40063477 C76.05883178 8.17484434 74.5893125 9.71009583 72 13 C71.28722075 16.46738638 71.28722075 16.46738638 71.5 20.125 C71.51546875 21.95417969 71.51546875 21.95417969 71.53125 23.8203125 C72.03978978 27.26990734 72.33058377 27.94961154 75 30 C77.00233506 30.48363176 77.00233506 30.48363176 79.1953125 30.4765625 C79.99324219 30.5075 80.79117188 30.5384375 81.61328125 30.5703125 C82.44214844 30.58835937 83.27101563 30.60640625 84.125 30.625 C92.89527027 30.89527027 92.89527027 30.89527027 94 32 C94.125 35 94.125 35 94 38 C92.45461688 39.54538312 90.99828899 39.12967467 88.8515625 39.1328125 C88.01109375 39.13410156 87.170625 39.13539062 86.3046875 39.13671875 C84.97824219 39.13091797 84.97824219 39.13091797 83.625 39.125 C82.31015625 39.13080078 82.31015625 39.13080078 80.96875 39.13671875 C80.12570313 39.13542969 79.28265625 39.13414063 78.4140625 39.1328125 C77.6401416 39.13168457 76.8662207 39.13055664 76.06884766 39.12939453 C74 39 74 39 71 38 C71 46.58 71 55.16 71 64 C74.3 63.95359375 77.6 63.9071875 81 63.859375 C84.2136888 63.82813566 87.42736036 63.80387274 90.64111328 63.78027344 C92.86612582 63.76021954 95.09108607 63.73296935 97.31591797 63.69824219 C100.52324365 63.64945066 103.72986951 63.62696838 106.9375 63.609375 C108.41766602 63.57840729 108.41766602 63.57840729 109.92773438 63.54681396 C117.33005354 63.54443574 122.73701709 65.0336519 128.27734375 70.0703125 C128.82519531 70.74835938 129.37304688 71.42640625 129.9375 72.125 C130.50339844 72.80820313 131.06929687 73.49140625 131.65234375 74.1953125 C134.04865562 77.40428666 134.12241672 79.40214151 134.11352539 83.36767578 C134.11344986 84.48868683 134.11337433 85.60969788 134.11329651 86.76467896 C134.10813522 87.97928802 134.10297394 89.19389709 134.09765625 90.4453125 C134.09553383 92.30553543 134.09553383 92.30553543 134.09336853 94.20333862 C134.08871096 97.50118133 134.07972439 100.79897546 134.06866455 104.09680176 C134.05843731 107.46166387 134.05386809 110.82653308 134.04882812 114.19140625 C134.03778269 120.79428993 134.02103247 127.39714099 134 134 C126.13471512 134.10150834 118.2695995 134.17151159 110.40380859 134.21972656 C107.72836625 134.23756825 105.05377984 134.26711049 102.37841797 134.30175781 C98.53081429 134.35033506 94.68379213 134.37298365 90.8359375 134.390625 C89.64197357 134.41127014 88.44800964 134.43191528 87.21786499 134.45318604 C78.96415528 134.45541109 75.59704824 133.40772991 69.625 127.75 C69.08875 127.1725 68.5525 126.595 68 126 C64.82763643 126.80900253 64.82763643 126.80900253 62.5625 129.4375 C59.55274661 132.44725339 57.65843556 133.84700055 53.39300537 134.24050903 C51.91407806 134.2338472 51.91407806 134.2338472 50.40527344 134.22705078 C48.72398346 134.22682419 48.72398346 134.22682419 47.00872803 134.22659302 C45.20229828 134.21110916 45.20229828 134.21110916 43.359375 134.1953125 C41.50339691 134.19106766 41.50339691 134.19106766 39.60992432 134.18673706 C36.32848459 134.177442 33.04724246 134.15948705 29.76586914 134.1373291 C26.41424378 134.11683048 23.06260993 134.10789724 19.7109375 134.09765625 C13.14054777 134.0756003 6.57029004 134.04212582 0 134 C-0.15269675 126.33221076 -0.25744528 118.66481658 -0.32958984 110.99584961 C-0.35967898 108.38958076 -0.40056085 105.78341248 -0.45263672 103.17749023 C-0.52579218 99.42145924 -0.55953748 95.66677211 -0.5859375 91.91015625 C-0.61690521 90.75354996 -0.64787292 89.59694366 -0.67977905 88.4052887 C-0.68337723 79.66791909 1.62851098 74.48898187 7.69692993 68.25746155 C8.12694305 67.84249924 8.55695618 67.42753693 9 67 C8.43410156 66.37351562 7.86820312 65.74703125 7.28515625 65.1015625 C6.55167969 64.28429687 5.81820313 63.46703125 5.0625 62.625 C4.33160156 61.81289063 3.60070312 61.00078125 2.84765625 60.1640625 C-0.01699561 56.80884658 -0.12326007 54.97398967 -0.11352539 50.63232422 C-0.11344986 49.51131317 -0.11337433 48.39030212 -0.11329651 47.23532104 C-0.10813522 46.02071198 -0.10297394 44.80610291 -0.09765625 43.5546875 C-0.0962413 42.31453888 -0.09482635 41.07439026 -0.09336853 39.79666138 C-0.08871096 36.49881867 -0.07972439 33.20102454 -0.06866455 29.90319824 C-0.05843731 26.53833613 -0.05386809 23.17346692 -0.04882812 19.80859375 C-0.03778269 13.20571007 -0.02103247 6.60285901 0 0 Z M6 6 C5.9007031 12.11974418 5.82832904 18.23901352 5.78027344 24.359375 C5.76022841 26.43888525 5.73298487 28.51833963 5.69824219 30.59765625 C5.64941052 33.59649487 5.62695972 36.59458463 5.609375 39.59375 C5.58872986 40.51490601 5.56808472 41.43606201 5.54681396 42.38513184 C5.54473623 48.4391036 6.57767739 52.94074825 10 58 C14.31548609 62.31548609 19.01551692 64.07049952 25.07763672 64.22705078 C26.61169009 64.22673776 28.14576898 64.21565519 29.6796875 64.1953125 C30.49245148 64.1924826 31.30521545 64.18965271 32.14260864 64.18673706 C34.72022675 64.17560619 37.29748819 64.15051515 39.875 64.125 C41.63020329 64.11496101 43.38541206 64.10583677 45.140625 64.09765625 C49.42721926 64.07569015 53.7135493 64.04120978 58 64 C56.53405354 62.2604102 55.05896363 60.53250735 53.55761719 58.82324219 C52 57 52 57 50.328125 54.578125 C46.25219475 51.81524611 41.53063645 52.59226326 36.75 52.75 C35.203125 52.77707031 35.203125 52.77707031 33.625 52.8046875 C31.08238936 52.85177288 28.54166838 52.9175195 26 53 C26 50.69 26 48.38 26 46 C30.62 46 35.24 46 40 46 C39.05125 44.88625 38.1025 43.7725 37.125 42.625 C36.59132813 41.99851563 36.05765625 41.37203125 35.5078125 40.7265625 C33.20593247 37.82606658 33.20593247 37.82606658 29.84521484 36.77294922 C28.54124756 36.78865967 28.54124756 36.78865967 27.2109375 36.8046875 C26.26992188 36.81113281 25.32890625 36.81757812 24.359375 36.82421875 C23.37453125 36.84097656 22.3896875 36.85773437 21.375 36.875 C20.38242187 36.88402344 19.38984375 36.89304687 18.3671875 36.90234375 C15.91121866 36.92595884 13.45572832 36.95889201 11 37 C11 35.02 11 33.04 11 31 C17.6 31 24.2 31 31 31 C31 24.4 31 17.8 31 11 C32.98 11 34.96 11 37 11 C36.96334229 11.59949463 36.92668457 12.19898926 36.88891602 12.81665039 C36.7423269 15.56473244 36.65205142 18.31199209 36.5625 21.0625 C36.50384766 22.00544922 36.44519531 22.94839844 36.38476562 23.91992188 C36.24403077 29.40504406 36.24403077 29.40504406 38.55419922 34.24560547 C40.28915589 36.00539157 41.98647751 37.56899453 44 39 C44.33 39 44.66 39 45 39 C45.33 35.04 45.66 31.08 46 27 C47.98 27 49.96 27 52 27 C51.9779248 27.58378418 51.95584961 28.16756836 51.93310547 28.76904297 C51.14573114 40.79145644 51.14573114 40.79145644 55.2578125 51.62109375 C59.05877358 55.84844626 59.05877358 55.84844626 64 58 C64.0250466 53.92896481 64.04302089 49.85796054 64.05493164 45.78686523 C64.05990624 44.40697446 64.06668832 43.02708879 64.07543945 41.6472168 C64.95489494 25.2409058 64.95489494 25.2409058 58.9609375 10.65625 C53.08405284 5.69250678 47.03511 5.58427757 39.69140625 5.70703125 C38.24132423 5.71339851 38.24132423 5.71339851 36.76194763 5.71989441 C33.69517351 5.73659478 30.6290732 5.77423101 27.5625 5.8125 C25.47461891 5.827558 23.38672745 5.84124445 21.29882812 5.85351562 C16.19896185 5.88647001 11.0995949 5.93819249 6 6 Z M11 75 C9.42930551 77.57759202 9.42930551 77.57759202 9 80 C9.59425781 80.08636719 10.18851563 80.17273438 10.80078125 80.26171875 C16.94172799 81.30271905 21.94172532 83.18214548 27.45703125 86.07421875 C30.53405782 87.19442658 31.91429469 87.02694609 35 86 C37.43532742 84.71294309 37.43532742 84.71294309 39.8125 83.125 C47.64693407 78.29492118 54.93031941 76.41713759 64 75 C64 73.68 64 72.36 64 71 C57.73793519 70.8981271 51.47608608 70.82833719 45.21337891 70.78027344 C43.08536798 70.76022532 40.95741168 70.73297946 38.82958984 70.69824219 C35.76125567 70.64942452 32.69365327 70.62696274 29.625 70.609375 C28.68197021 70.58872986 27.73894043 70.56808472 26.76733398 70.54681396 C20.78450622 70.5448063 15.90511411 71.36107056 11 75 Z M71 71 C70.8726605 77.2619848 70.78542419 83.52363268 70.7253418 89.78662109 C70.70028111 91.91467771 70.66622309 94.04264897 70.62280273 96.17041016 C70.56177911 99.23882163 70.53370526 102.30608995 70.51171875 105.375 C70.48591232 106.31802979 70.4601059 107.26105957 70.43351746 108.23266602 C70.43081208 114.6822866 71.59759133 119.15736814 76 124 C81.18718741 128.66807256 86.85083116 128.53599396 93.52734375 128.390625 C94.51626114 128.38496521 95.50517853 128.37930542 96.52406311 128.37347412 C99.66238143 128.35120015 102.79953057 128.30101998 105.9375 128.25 C108.07355114 128.22992342 110.2096203 128.21167468 112.34570312 128.1953125 C117.5641966 128.15136511 122.78201474 128.0845437 128 128 C128.10175694 121.71962384 128.17161462 115.43946176 128.21972656 109.15844727 C128.23979182 107.02360082 128.26705058 104.888809 128.30175781 102.75415039 C128.35049943 99.67841075 128.37302006 96.60340031 128.390625 93.52734375 C128.41127014 92.57915268 128.43191528 91.63096161 128.45318604 90.65403748 C128.45523673 84.54245168 127.57141904 81.00072151 124 76 C119.97595559 72.27039786 116.97802131 70.87121002 111.52856445 70.88647461 C110.62785721 70.88655014 109.72714996 70.88662567 108.79914856 70.88670349 C107.34589424 70.89444542 107.34589424 70.89444542 105.86328125 70.90234375 C104.86870407 70.9037587 103.87412689 70.90517365 102.84941101 70.90663147 C99.67041018 70.91223239 96.49147957 70.92478504 93.3125 70.9375 C91.15820414 70.94251488 89.00390718 70.94707781 86.84960938 70.95117188 C81.56638226 70.96220212 76.28319615 70.97894114 71 71 Z M38 92 C40.97 95.465 40.97 95.465 44 99 C44.71027344 98.71253906 45.42054687 98.42507812 46.15234375 98.12890625 C48.94206026 97.02296925 51.74424502 95.96837769 54.5625 94.9375 C55.49191406 94.59589844 56.42132813 94.25429687 57.37890625 93.90234375 C60 93 60 93 64 92 C64 88.7 64 85.4 64 82 C54.04648805 82 45.82112408 86.074906 38 92 Z M6 86 C6 89.3 6 92.6 6 96 C6.76183594 96.21914062 7.52367187 96.43828125 8.30859375 96.6640625 C20.80566344 100.50211387 28.17178012 105.72305163 34.75 117 C36.26291178 120.63098828 37.13991354 124.16269117 38 128 C41.3 128 44.6 128 48 128 C47.32696969 116.33414137 42.17053329 106.25638828 34 98 C25.77649862 90.98781633 16.78548919 86.79892512 6 86 Z M56.5 100.875 C55.7265625 101.22304687 54.953125 101.57109375 54.15625 101.9296875 C51.79556759 103.04462777 51.79556759 103.04462777 49 105 C49.27263672 105.78310547 49.27263672 105.78310547 49.55078125 106.58203125 C51.62559043 112.65749813 53.36415169 118.79305783 55 125 C59.15931679 123.1601345 60.73924641 120.97580804 63 117 C64.06253375 113.03593176 64.10381661 109.27784413 64.0625 105.1875 C64.05347656 104.02605469 64.04445313 102.86460938 64.03515625 101.66796875 C64.02355469 100.78753906 64.01195313 99.90710938 64 99 C60.82797964 99 59.34415714 99.57616824 56.5 100.875 Z M6 103 C6 106.63 6 110.26 6 114 C7.2375 114.391875 8.475 114.78375 9.75 115.1875 C16.0532223 117.56649396 18.24295949 122.07236289 21 128 C24.3 128 27.6 128 31 128 C28.96958242 118.18631504 24.24917615 111.77569829 16 106 C12.65134876 104.59813071 9.56256349 103.80283121 6 103 Z M6 121 C6 123.31 6 125.62 6 128 C8.31 128 10.62 128 13 128 C11.71480435 125.13302508 10.42870746 123.02392288 8 121 C7.34 121 6.68 121 6 121 Z " fill="#F1AE1B" transform="translate(0,0)"/>
<path d="M0 0 C2.9549485 1.83168514 5.41832955 3.8366591 7 7 C7.61190752 11.860294 7.98800488 16.46905779 4.875 20.5 C1.91973957 23.06979168 -0.2151108 24.11979321 -4 25 C-1.74259377 27.33524782 0.2805761 29.18705073 3 31 C2.375 32.9375 2.375 32.9375 1 35 C-1.875 35.875 -1.875 35.875 -5 36 C-5.66 35.62875 -6.32 35.2575 -7 34.875 C-7.99 34.441875 -7.99 34.441875 -9 34 C-11.0088485 34.98210371 -13.00787329 35.98440599 -15 37 C-18.875 37.1875 -18.875 37.1875 -22 37 C-22 34.69 -22 32.38 -22 30 C-19.03 29.01 -16.06 28.02 -13 27 C-13 26.34 -13 25.68 -13 25 C-15.97 25 -18.94 25 -22 25 C-22 19.39 -22 13.78 -22 8 C-19.69 8 -17.38 8 -15 8 C-15 10.97 -15 13.94 -15 17 C-11.04 16.67 -7.08 16.34 -3 16 C-2.34 14.35 -1.68 12.7 -1 11 C-1.66 10.01 -2.32 9.02 -3 8 C-3.9075 8.165 -4.815 8.33 -5.75 8.5 C-9 9 -9 9 -13 9 C-13.66 8.34 -14.32 7.68 -15 7 C-15 4.5625 -15 4.5625 -14 2 C-9.51885534 -1.27888633 -5.22173174 -1.73365646 0 0 Z " fill="#F2AF1A" transform="translate(107,81)"/>
<path d="M0 0 C3.5625 0.1875 3.5625 0.1875 5.5625 2.1875 C5.8125 5.1875 5.8125 5.1875 5.5625 8.1875 C3.5625 10.1875 3.5625 10.1875 0.0625 10.5 C-1.67 10.3453125 -1.67 10.3453125 -3.4375 10.1875 C-5.4375 7.1875 -5.4375 7.1875 -5.125 4.0625 C-4.20842511 0.22955046 -4.20842511 0.22955046 0 0 Z " fill="#F2B31A" transform="translate(110.4375,16.8125)"/>
</svg>
